<?xml version="1.0" standalone="no"?>
<!DOCTYPE svg PUBLIC "-//W3C//DTD SVG 20010904//EN"
 "http://www.w3.org/TR/2001/REC-SVG-20010904/DTD/svg10.dtd">
<svg version="1.0" xmlns="http://www.w3.org/2000/svg"
 width="644.000000pt" height="644.000000pt" viewBox="0 0 644.000000 644.000000"
 preserveAspectRatio="xMidYMid meet">
<metadata>
Created by potrace 1.14, written by Peter Selinger 2001-2017
</metadata>
<g transform="translate(0.000000,644.000000) scale(0.100000,-0.100000)"
fill="#000000" stroke="none">
<path d="M2692 6428 c-192 -24 -432 -106 -623 -212 -355 -199 -624 -469 -861
-868 -220 -373 -354 -774 -420 -1258 -30 -221 -32 -677 -5 -900 122 -989 555
-1862 1346 -2718 82 -88 102 -116 91 -122 -8 -5 -96 -64 -195 -132 -162 -111
-180 -126 -183 -154 -2 -19 3 -36 12 -44 22 -18 2254 -19 2496 -1 346 25 559
72 768 167 113 52 202 116 291 210 128 135 207 288 254 488 17 73 21 124 21
261 0 186 -12 257 -73 423 -175 481 -685 892 -1336 1077 -72 21 -131 38 -133
40 -1 1 23 19 54 39 71 47 106 53 180 30 84 -26 341 -27 434 -1 153 42 249
109 299 209 27 52 31 72 31 139 0 119 -51 259 -95 259 -7 0 -16 13 -20 29 -9
43 -58 115 -99 146 -19 15 -60 37 -89 49 l-54 22 84 109 c163 214 205 310 185
429 -13 78 -58 183 -85 197 -41 23 -62 3 -175 -168 -60 -93 -151 -235 -202
-318 -101 -165 -166 -255 -184 -255 -7 0 -26 20 -43 44 -99 140 -280 202 -411
141 -58 -27 -150 -112 -177 -164 -33 -64 4 -111 73 -91 88 24 185 1 256 -61
73 -64 74 -71 26 -134 -131 -170 -318 -296 -535 -361 -82 -25 -105 -27 -260
-28 -194 -1 -266 11 -458 74 -464 155 -707 428 -709 800 0 188 50 327 157 435
110 110 234 156 423 156 248 -1 480 -116 640 -320 68 -86 87 -96 122 -61 26
26 25 32 -6 132 -30 96 -80 199 -134 278 -51 74 -171 189 -248 238 l-63 40 68
7 c164 16 327 77 450 169 121 92 303 307 303 359 0 58 -56 64 -126 14 -70 -50
-185 -103 -275 -126 -143 -37 -350 -38 -226 -2 63 19 166 75 223 123 73 61
122 122 161 203 87 183 83 385 -13 583 -78 161 -230 291 -406 347 -135 43
-344 56 -526 33z m463 -123 c198 -53 333 -180 403 -378 33 -95 37 -261 8 -347
-45 -133 -148 -251 -269 -309 -128 -61 -176 -66 -466 -48 -29 2 -38 -3 -50
-25 -22 -39 -9 -56 79 -100 135 -67 211 -83 405 -83 164 0 202 5 310 40 11 4
-2 -14 -30 -40 -62 -57 -196 -127 -301 -157 -108 -31 -290 -31 -461 0 -66 12
-135 22 -151 22 -55 0 -81 -52 -46 -91 9 -10 87 -41 173 -69 97 -31 188 -68
241 -98 90 -51 222 -167 279 -248 36 -49 34 -49 -34 -4 -95 64 -227 117 -353
141 -102 19 -300 7 -398 -25 -225 -72 -380 -259 -424 -512 -16 -90 -8 -296 14
-379 83 -306 346 -541 755 -675 552 -181 1010 -78 1344 305 108 124 120 163
74 251 -37 72 -155 147 -250 160 -26 4 -50 10 -52 14 -10 16 70 45 120 44 69
-1 122 -31 191 -109 89 -102 138 -118 212 -67 56 37 87 79 202 271 139 233
245 393 253 385 14 -15 6 -115 -14 -169 -11 -30 -62 -113 -113 -183 -51 -70
-127 -177 -169 -238 -43 -61 -112 -149 -154 -195 -108 -119 -133 -161 -133
-225 0 -91 64 -130 202 -122 l80 5 56 -56 c61 -61 106 -80 183 -82 l44 0 -41
-19 c-23 -10 -76 -26 -119 -35 -95 -21 -269 -17 -395 10 -47 10 -97 15 -110
12 -44 -12 -305 -181 -308 -200 -2 -10 -1 -29 2 -41 5 -20 20 -27 123 -51 715
-166 1265 -562 1443 -1038 83 -222 92 -500 23 -722 -136 -437 -479 -644 -1148
-695 -71 -5 -488 -13 -925 -17 l-795 -6 -115 105 c-256 234 -511 506 -699 748
l-89 115 96 7 c367 27 545 71 666 163 174 133 140 464 -59 580 -77 45 -156 59
-337 60 -144 0 -167 2 -163 15 15 52 27 239 21 335 -8 125 -40 299 -62 333
-18 28 -55 29 -79 2 -18 -20 -18 -24 6 -138 45 -223 29 -483 -41 -688 -25 -72
-25 -101 -1 -114 51 -27 80 -4 106 81 l18 56 91 7 c91 7 258 -6 326 -24 135
-36 219 -217 161 -346 -24 -52 -87 -106 -157 -132 -112 -44 -387 -82 -587 -82
l-87 0 -84 127 c-403 613 -639 1254 -712 1936 -20 183 -22 559 -5 732 61 597
250 1102 580 1545 338 454 770 716 1296 789 98 14 327 5 400 -14z m1577 -2895
c0 -103 -46 -192 -128 -247 -36 -25 -102 -31 -122 -11 -23 23 -11 50 59 131
39 45 94 114 123 153 59 82 68 79 68 -26z m174 -22 c20 -39 17 -107 -6 -146
-18 -30 -85 -71 -116 -72 -6 0 3 27 20 61 24 49 31 77 34 145 l5 85 24 -23
c14 -13 31 -35 39 -50z m97 -286 c-36 -74 -131 -104 -206 -65 l-32 16 62 17
c69 19 118 52 160 107 l28 37 3 -38 c2 -21 -4 -52 -15 -74z m-2598 -2907 l90
-84 -214 -1 c-118 0 -212 2 -209 5 9 10 233 163 238 164 3 0 46 -38 95 -84z"/>
<path d="M2278 5838 c-46 -38 -26 -78 56 -113 36 -15 66 -31 66 -36 0 -4 -15
-17 -33 -28 -42 -26 -133 -121 -176 -184 -17 -26 -47 -80 -66 -120 -119 -252
-72 -467 102 -467 65 0 110 18 180 71 125 94 246 293 279 458 9 46 14 99 11
118 -4 25 -3 33 6 30 7 -3 42 -17 78 -32 79 -33 115 -29 125 12 4 14 2 33 -3
42 -10 16 -564 259 -594 260 -8 1 -22 -5 -31 -11z m272 -217 c21 -40 12 -58
-42 -89 -29 -16 -79 -57 -110 -91 -32 -33 -64 -61 -71 -61 -24 0 -57 31 -57
54 0 62 164 205 237 206 22 0 36 -6 43 -19z m-296 -271 c21 -8 26 -16 26 -43
0 -55 -43 -76 -82 -40 -24 21 -23 48 2 73 23 23 21 23 54 10z"/>
<path d="M1964 4905 c-9 -15 -13 -32 -9 -45 10 -31 114 -77 206 -91 115 -18
179 1 179 54 0 41 -13 47 -105 51 -67 3 -106 10 -154 30 -80 32 -96 32 -117 1z"/>
<path d="M3932 1958 c-7 -7 -12 -24 -12 -39 0 -23 12 -35 70 -74 79 -53 128
-107 163 -182 32 -69 44 -83 76 -83 56 0 65 44 27 127 -21 44 -22 52 -9 57 27
11 79 6 127 -10 65 -22 96 -9 96 41 0 30 -5 37 -41 55 -55 29 -159 36 -223 16
-48 -14 -49 -14 -75 11 -76 73 -169 111 -199 81z"/>
</g>
</svg>
